<svg width="80" height="80" viewBox="0 0 80 80" fill="none" xmlns="http://www.w3.org/2000/svg">
    <!-- Background Circle with Gradient -->
    <defs>
        <linearGradient id="logoGradient" x1="0%" y1="0%" x2="100%" y2="100%">
            <stop offset="0%" style="stop-color:#667eea;stop-opacity:1" />
            <stop offset="100%" style="stop-color:#764ba2;stop-opacity:1" />
        </linearGradient>
        <filter id="shadow" x="-50%" y="-50%" width="200%" height="200%">
            <feGaussianBlur in="SourceAlpha" stdDeviation="3"/>
            <feOffset dx="0" dy="2" result="offsetblur"/>
            <feComponentTransfer>
                <feFuncA type="linear" slope="0.3"/>
            </feComponentTransfer>
            <feMerge>
                <feMergeNode/>
                <feMergeNode in="SourceGraphic"/>
            </feMerge>
        </filter>
    </defs>
    
    <!-- Main Circle -->
    <circle cx="40" cy="40" r="38" fill="url(#logoGradient)" filter="url(#shadow)"/>
    <circle cx="40" cy="40" r="38" fill="none" stroke="rgba(255,255,255,0.2)" stroke-width="2"/>
    
    <!-- Calculator Display -->
    <rect x="20" y="18" width="40" height="12" rx="2" fill="rgba(255,255,255,0.9)"/>
    <line x1="24" y1="24" x2="56" y2="24" stroke="#667eea" stroke-width="2" stroke-linecap="round"/>
    
    <!-- Calculator Buttons Grid -->
    <!-- Row 1 -->
    <rect x="20" y="35" width="8" height="8" rx="1.5" fill="rgba(255,255,255,0.85)"/>
    <rect x="31" y="35" width="8" height="8" rx="1.5" fill="rgba(255,255,255,0.85)"/>
    <rect x="42" y="35" width="8" height="8" rx="1.5" fill="rgba(255,255,255,0.85)"/>
    <rect x="53" y="35" width="8" height="8" rx="1.5" fill="rgba(255,255,255,0.7)"/>
    
    <!-- Row 2 -->
    <rect x="20" y="46" width="8" height="8" rx="1.5" fill="rgba(255,255,255,0.85)"/>
    <rect x="31" y="46" width="8" height="8" rx="1.5" fill="rgba(255,255,255,0.85)"/>
    <rect x="42" y="46" width="8" height="8" rx="1.5" fill="rgba(255,255,255,0.85)"/>
    <rect x="53" y="46" width="8" height="8" rx="1.5" fill="rgba(255,255,255,0.7)"/>
    
    <!-- Row 3 -->
    <rect x="20" y="57" width="8" height="8" rx="1.5" fill="rgba(255,255,255,0.85)"/>
    <rect x="31" y="57" width="8" height="8" rx="1.5" fill="rgba(255,255,255,0.85)"/>
    <rect x="42" y="57" width="8" height="8" rx="1.5" fill="rgba(255,255,255,0.85)"/>
    <rect x="53" y="57" width="8" height="8" rx="1.5" fill="rgba(102,126,234,0.9)"/>
    
    <!-- Mathematical Symbols -->
    <text x="24" y="42" fill="#667eea" font-size="6" font-weight="bold" font-family="Arial">7</text>
    <text x="35" y="42" fill="#667eea" font-size="6" font-weight="bold" font-family="Arial">8</text>
    <text x="46" y="42" fill="#667eea" font-size="6" font-weight="bold" font-family="Arial">9</text>
    <text x="56" y="42" fill="#764ba2" font-size="7" font-weight="bold" font-family="Arial">รท</text>
</svg>